# xmcd CD database file
#
# Track frame offsets:
#	150
#	13010
#	26795
#	39265
#	52712
#	66195
#	78260
#	88760
#	103795
#	116082
#	128420
#	143127
#	160025
#	178012
#	200007
#	213707
#	229862
#	250010
#	264980
#	275965
#	306925
#
# Disc length: 4440 seconds
#
# Revision: 0
# Processed by: cddbd v1.5.1PL0 Copyright (c) Steve Scherf et al.
# Submitted via: CDex 1.51
#
DISCID=26115615
DTITLE=Chet Baker - Chet Baker Sings
DYEAR=1989
DGENRE=Jazz
TTITLE0=The Thrill is gone
TTITLE1=But not for me
TTITLE2=Time after time
TTITLE3=I get along without you very well
TTITLE4=There will never be another you
TTITLE5=Look for the silver lining
TTITLE6=My funny valentine
TTITLE7=I fall in love too easily
TTITLE8=Daybreak
TTITLE9=Just friends
TTITLE10=I remember you
TTITLE11=Let's get lost
TTITLE12=Long ago and far away
TTITLE13=You don't know what love is
TTITLE14=That old feeling
TTITLE15=It's always you
TTITLE16=I've never been in love before
TTITLE17=My buddy
TTITLE18=Like someone in love
TTITLE19=My ideal
TTITLE20=Copy track
EXTD=YEAR: 1989
EXTT0=
EXTT1=
EXTT2=
EXTT3=
EXTT4=
EXTT5=
EXTT6=
EXTT7=
EXTT8=
EXTT9=
EXTT10=
EXTT11=
EXTT12=
EXTT13=
EXTT14=
EXTT15=
EXTT16=
EXTT17=
EXTT18=
EXTT19=
EXTT20=
PLAYORDER=
